# xmcd CD database file generated by Grip 3.3.0
# 
# Track frame offsets:
#       150
#       18478
#       35799
# 
# Disc length: 774 seconds
# 
# Revision: 1
# Processed by: cddbd v1.5.1PL0 Copyright (c) Steve Scherf et al.
# Submitted via: Grip 3.3.0
# 
DISCID=20030403
DTITLE=Fear Factory - Live on the Sunset Strip
DYEAR=2005
DGENRE=Rock
TTITLE0=Slave Labor
TTITLE1=Cyberwaste
TTITLE2=Drones
EXTD=YEAR: 1990
EXTT0=
EXTT1=
EXTT2=
PLAYORDER=
